@startuml

title 基于GitHub的实验管理平台--类图

class users {

    <b>user_id</b> （用户ID）

    name （用户真实姓名）

    github_username （用户GitHub账号）

    update_date （用户GitHub账号修改日期）

    password （用户密码）

    disable （用户是否禁用）

}

class teachers{

    <b>teacher_id</b> （老师工号）

    teacher_name（教师名称）

    department （老师所属部门）

}

class students{

    <b>student_id</b> （学号）

    student_name（学生姓名）

    class （班级）

    result_sum（成绩汇总）

    web_sum （网站正确与否汇总）

}

class grades {

    <b>student_id</b> （学号）

    <b>test_id</b> （实验编号）

    result （分数）

    memo （评价）

    update_date （评改日期）

}

class courses{

    <b>course_id</b>（课程编号）

    course_name（课程名称）

    course_hour（课程学时）
}
class terms{

    <b>term_id</b>（学期编号）

    term-year（学年）
}
class tests {

    <b>test_id</b> （实验编号）

    course_name（课程名称）

    title (实验名称)

}

users <|- students

users <|-- teachers

students "1" -- "n"  courses

teachers "1" -- "n"  courses

courses  "1" -- "n"  tests

students "1" -- "n"  terms

teachers "1" -- "n"  terms

students "1" -- "n"  grades

tests "1" -- "n"  grades


@enduml
